HIERARCHY
ROOT Hips
{
	OFFSET 0.000000 0.000000 0.000000 
	CHANNELS 6 Xposition Yposition Zposition Zrotation Xrotation Yrotation
	JOINT Spine
	{
		OFFSET -0.000000 8.061080 0.000000 
		CHANNELS 3 Zrotation Xrotation Yrotation
		JOINT Spine1
		{
			OFFSET -0.001044 16.775810 -0.001851 
			CHANNELS 3 Zrotation Xrotation Yrotation
			JOINT Neck
			{
				OFFSET -0.000000 22.498800 0.000000 
				CHANNELS 3 Zrotation Xrotation Yrotation
				JOINT Head
				{
					OFFSET -0.000000 15.237400 1.966120 
					CHANNELS 3 Zrotation Xrotation Yrotation
					End Site
					{
						OFFSET -0.000000 19.661222 0.000000 
					}
				}
			}
			JOINT LeftShoulder
			{
				OFFSET 3.894670 16.042299 -0.398189 
				CHANNELS 3 Zrotation Xrotation Yrotation
				JOINT LeftArm
				{
					OFFSET 19.709600 0.000000 0.000000 
					CHANNELS 3 Zrotation Xrotation Yrotation
					JOINT LeftForeArm
					{
						OFFSET 25.566900 0.000000 0.000000 
						CHANNELS 3 Zrotation Xrotation Yrotation
						JOINT LeftHand
						{
							OFFSET 28.126812 -0.000627 -0.000294 
							CHANNELS 3 Zrotation Xrotation Yrotation
							End Site
							{
								OFFSET 14.745918 0.000000 0.000000 
							}
						}
					}
				}
			}
			JOINT RightShoulder
			{
				OFFSET -3.930780 16.042299 -0.398189 
				CHANNELS 3 Zrotation Xrotation Yrotation
				JOINT RightArm
				{
					OFFSET -19.709600 0.000000 0.000000 
					CHANNELS 3 Zrotation Xrotation Yrotation
					JOINT RightForeArm
					{
						OFFSET -25.566900 0.000000 0.000000 
						CHANNELS 3 Zrotation Xrotation Yrotation
						JOINT RightHand
						{
							OFFSET -34.053413 -0.148630 0.434597 
							CHANNELS 3 Zrotation Xrotation Yrotation
							End Site
							{
								OFFSET -14.745918 0.000000 0.000000 
							}
						}
					}
				}
			}
		}
	}
	JOINT LeftUpLeg
	{
		OFFSET 9.830590 0.000000 0.000000 
		CHANNELS 3 Zrotation Xrotation Yrotation
		JOINT LeftLeg
		{
			OFFSET -0.000000 -46.474800 0.000000 
			CHANNELS 3 Zrotation Xrotation Yrotation
			JOINT LeftFoot
			{
				OFFSET -0.000000 -30.290499 0.000000 
				CHANNELS 3 Zrotation Xrotation Yrotation
				JOINT LeftToeBase
				{
					OFFSET -0.000000 -6.389880 14.745900 
					CHANNELS 3 Zrotation Xrotation Yrotation
					End Site
					{
						OFFSET -0.000000 0.000000 3.932244 
					}
				}
			}
		}
	}
	JOINT RightUpLeg
	{
		OFFSET -9.830590 0.000000 0.000000 
		CHANNELS 3 Zrotation Xrotation Yrotation
		JOINT RightLeg
		{
			OFFSET -0.000000 -46.474800 0.000000 
			CHANNELS 3 Zrotation Xrotation Yrotation
			JOINT RightFoot
			{
				OFFSET -0.000000 -30.290499 0.000000 
				CHANNELS 3 Zrotation Xrotation Yrotation
				JOINT RightToeBase
				{
					OFFSET -0.000000 -6.389880 14.745900 
					CHANNELS 3 Zrotation Xrotation Yrotation
					End Site
					{
						OFFSET -0.000000 0.000000 3.932244 
					}
				}
			}
		}
	}
}
MOTION
Frames: 6
Frame Time: 0.010000
0.000000 83.940544 0.000000 0.209872 6.983165 -2.922996 -3.252801 -13.637987 0.656946 4.580416 1.365286 0.295547 2.744303 0.278788 -4.076892 2.668173 11.561618 -4.444093 9.106781 12.620894 -7.075057 -70.047989 34.043842 -34.659744 -13.884802 -1.716112 -0.368072 5.710200 -1.566065 3.896125 -8.307678 6.807776 -14.350845 87.280373 -4.613415 -0.193876 11.826604 17.329700 29.314686 -16.457327 14.414177 -2.850513 4.045691 -2.763065 -7.717991 -1.689531 -5.312608 -4.347400 -0.701806 -5.969932 19.072739 0.000000 0.000000 0.000000 -8.394887 -5.354785 -7.362436 7.001026 6.005240 -22.794861 4.509428 -12.624288 32.987144 0.000000 0.000000 0.000000 
-0.004289 83.944557 0.007377 0.195227 6.945017 -2.882223 -2.914951 -13.319242 0.495100 4.155026 0.869859 0.248362 2.641034 0.516221 -3.920823 2.795733 11.607471 -4.321463 8.731491 11.967304 -7.273469 -70.391563 34.557697 -33.117947 -13.526653 -1.968662 -0.714756 5.665993 -1.863037 3.836764 -8.292095 7.003262 -14.105680 87.549911 -4.637543 -0.199378 11.476589 17.351921 29.251389 -16.196117 14.531628 -2.836519 4.059840 -2.725071 -7.758011 -1.694847 -5.316828 -4.310755 -0.702792 -5.962156 19.039179 0.000000 0.000000 0.000000 -8.375161 -5.310952 -7.393460 7.003699 5.959138 -22.812899 4.261315 -12.498113 33.016289 0.000000 0.000000 0.000000 
-0.016405 83.953217 0.026397 0.148571 6.854488 -2.830919 -2.550558 -13.085334 0.296485 3.731487 0.598096 0.178231 2.481200 0.652126 -3.730761 3.015876 11.696316 -4.196673 8.400167 11.326180 -7.372375 -70.720848 35.025753 -31.704491 -13.206520 -2.196254 -1.062061 5.619830 -2.130971 3.824408 -8.311867 7.140434 -13.801016 87.873825 -4.634146 -0.170657 11.097425 17.340509 29.190207 -15.931335 14.622973 -2.827217 4.111725 -2.625717 -7.800093 -1.703848 -5.322948 -4.348960 -0.708112 -5.961766 19.066734 0.000000 0.000000 0.000000 -8.325417 -5.165296 -7.405861 6.991368 5.942399 -22.807974 4.477160 -12.562823 32.959362 0.000000 0.000000 0.000000 
-0.028554 83.961929 0.045480 0.112458 6.780970 -2.764863 -2.193283 -12.965695 0.049262 3.314729 0.469363 0.087262 2.192667 0.748337 -3.489407 3.421624 11.810015 -4.081684 8.080643 10.788463 -7.354747 -70.914307 35.442463 -30.547731 -12.977674 -2.416068 -1.362296 5.548650 -2.386847 3.789226 -8.391750 7.247003 -13.415977 88.279350 -4.629577 -0.133082 10.659890 17.300158 29.143770 -15.652771 14.698805 -2.818896 4.154812 -2.548259 -7.867916 -1.714657 -5.330158 -4.354032 -0.717392 -5.950548 19.072378 0.000000 0.000000 0.000000 -8.280248 -5.048193 -7.447819 6.977484 5.896766 -22.830753 4.486145 -12.514101 32.944885 0.000000 0.000000 0.000000 
0.012706 83.966118 0.184792 -0.000118 6.612914 -2.405936 -1.557272 -13.280134 -0.401139 2.614053 1.034149 -0.095880 1.938276 0.675226 -3.209754 3.749792 11.823837 -3.905529 7.839600 10.203930 -7.206136 -71.058868 35.846199 -29.582024 -12.761505 -2.665611 -1.672035 5.451905 -2.666251 3.902143 -8.466516 7.248540 -12.999147 88.712257 -4.654151 -0.120698 10.190799 17.280851 29.248287 -15.346806 14.798445 -2.877333 4.195319 -2.307850 -8.318977 -1.662470 -5.414395 -4.282862 -0.695128 -5.965632 19.088810 0.000000 0.000000 0.000000 -8.395594 -4.617904 -7.557448 7.332104 5.714512 -23.692696 3.807138 -12.905356 34.784473 0.000000 0.000000 0.000000 
-0.073119 83.985268 0.095237 -0.003214 6.569649 -2.622284 -1.433557 -12.887404 -0.527530 2.471124 0.542758 -0.132757 1.671388 0.966825 -2.961694 4.064334 11.812879 -3.754163 7.542973 10.050372 -6.969338 -70.937103 36.154373 -28.996582 -12.682931 -2.791886 -1.846781 5.439676 -2.818490 3.748604 -8.632113 7.371882 -12.449584 89.236099 -4.598897 -0.023394 9.669415 17.138697 29.057926 -15.076450 14.797359 -2.798902 4.297483 -2.315857 -7.951907 -1.756050 -5.352468 -4.419531 -0.724506 -5.930828 19.088243 0.000000 0.000000 0.000000 -8.126734 -4.727217 -7.492546 6.933868 5.771890 -22.848988 4.432046 -12.405845 32.937340 0.000000 0.000000 0.000000 
